ply
format ascii 1.0
comment --------------------------------------------------
comment Prácticas IG (13-14)
comment perfil del peon
comment --------------------------------------------------
element vertex 10
property float32 x
property float32 y
property float32 z
element face 0
property list uint8 int32 vertex_indices
end_header
1.000000 11.000000 0.000000
1.800000 10.500000 0.000000
2.000000 10.000000 0.000000
1.800000 9.500000 0.000000
1.000000 8.000000 0.000000
1.500000 7.500000 0.000000
1.500000 3.500000 0.000000
1.800000 2.500000 0.000000
4.000000 1.000000 0.000000
4.000000 0.000000 0.000000

